<?xml version="1.0" standalone="no"?>
<!DOCTYPE svg PUBLIC "-//W3C//DTD SVG 20010904//EN"
 "http://www.w3.org/TR/2001/REC-SVG-20010904/DTD/svg10.dtd">
<svg version="1.0" xmlns="http://www.w3.org/2000/svg"
 width="483.000000pt" height="483.000000pt" viewBox="0 0 483.000000 483.000000"
 preserveAspectRatio="xMidYMid meet">
<metadata>
Created by potrace 1.11, written by Peter Selinger 2001-2013
</metadata>
<g transform="translate(0.000000,483.000000) scale(0.100000,-0.100000)"
fill="#000000" stroke="none">
<path d="M2309 4706 c-2 -2 -29 -7 -59 -10 -196 -23 -425 -115 -578 -231 -47
-35 -151 -139 -186 -185 -110 -143 -157 -271 -162 -440 -3 -101 0 -137 20
-225 13 -60 81 -199 126 -258 84 -110 235 -238 354 -298 62 -32 70 -40 43 -45
-7 -2 -24 -5 -39 -9 -22 -4 -30 0 -49 32 -38 62 -86 97 -149 108 -19 3 -37 8
-42 11 -18 11 -151 11 -183 -1 -19 -6 -51 -25 -72 -43 -21 -17 -40 -32 -43
-32 -3 0 -13 12 -24 28 -24 36 -92 86 -137 101 -39 13 -95 21 -177 25 -118 6
-228 -61 -274 -166 -14 -34 -26 -48 -40 -48 -15 0 -18 5 -13 20 3 11 7 55 7
99 0 76 -2 83 -50 179 -79 155 -80 177 -29 378 15 55 27 115 29 132 2 29 12
37 36 30 7 -3 9 -9 11 -38 3 -42 77 -52 176 -26 55 14 185 97 248 158 23 22
31 39 37 90 4 35 5 77 2 93 -3 17 -5 40 -6 53 0 12 -3 22 -7 22 -4 0 -12 20
-18 44 -11 46 -49 86 -80 86 -10 0 -22 5 -29 12 -9 9 -12 9 -12 1 0 -8 -9 -9
-31 -3 -57 17 -255 3 -318 -22 -14 -5 -37 -12 -51 -14 -62 -12 -220 -120 -202
-139 3 -3 1 -5 -5 -5 -14 0 -31 -43 -47 -116 -18 -80 -20 -88 -28 -95 -10 -7
-55 -135 -61 -174 -5 -26 -12 -76 -22 -140 -17 -111 -23 -132 -75 -235 -67
-132 -88 -206 -86 -290 3 -86 12 -133 37 -202 13 -37 15 -56 8 -81 -8 -26 -16
-69 -22 -107 0 -3 5 -18 12 -35 18 -44 70 -94 105 -100 17 -3 44 -7 60 -10 16
-2 32 -8 35 -13 13 -20 144 -102 188 -118 27 -10 53 -21 58 -25 14 -10 98 -33
112 -30 6 1 14 -2 16 -6 9 -15 205 -5 237 11 17 8 30 12 30 10 0 -3 -13 -30
-29 -62 -63 -126 -76 -185 -75 -337 1 -124 4 -148 27 -213 27 -77 105 -222
119 -222 4 0 8 -6 8 -13 0 -15 127 -148 195 -203 69 -56 177 -126 252 -164
l41 -21 -19 -66 c-14 -50 -18 -92 -16 -172 3 -109 -11 -171 -47 -200 -22 -18
-59 -137 -60 -193 -1 -30 -5 -48 -13 -48 -18 0 -160 -77 -218 -118 -27 -19
-55 -35 -62 -35 -7 0 -13 -4 -13 -7 0 -4 -13 -10 -28 -13 -57 -11 -101 -46
-108 -85 -6 -31 -3 -39 20 -59 15 -13 35 -23 44 -24 9 0 24 -2 32 -4 88 -22
167 -27 214 -14 23 6 77 28 121 50 44 21 100 40 125 43 58 5 80 14 81 35 6 68
5 131 -2 131 -5 0 -9 9 -9 19 0 11 -11 33 -25 49 -29 35 -31 42 -10 42 8 0 15
4 15 8 0 5 11 14 24 21 22 12 56 68 56 92 0 14 85 109 109 123 41 24 78 52
118 88 23 21 80 56 125 77 46 22 92 48 103 59 12 10 30 17 40 16 138 -23 231
-29 445 -28 204 0 266 4 390 25 36 6 74 13 85 14 35 5 68 13 163 39 51 15 97
26 101 26 4 0 23 -15 42 -32 67 -63 111 -93 172 -117 34 -14 64 -27 67 -31 3
-4 33 -25 68 -49 34 -23 63 -48 63 -56 1 -8 3 -19 4 -25 1 -5 3 -15 4 -20 1
-11 28 -39 100 -103 l43 -39 -27 -51 c-49 -95 -40 -177 20 -177 11 0 31 -14
45 -31 37 -45 101 -56 292 -53 86 1 162 5 168 9 7 4 18 23 26 42 23 54 4 80
-94 129 -77 38 -136 79 -187 126 -11 10 -30 26 -41 36 -15 12 -23 33 -27 69
-3 28 -15 73 -27 100 -13 26 -26 72 -31 101 -5 37 -15 60 -32 75 -22 20 -24
28 -21 91 3 63 0 79 -41 178 l-44 109 31 27 c71 62 146 140 141 146 -4 3 -1 6
5 6 15 0 97 125 128 196 46 105 64 197 60 314 -4 115 -6 129 -36 214 -27 79
-81 174 -139 244 -26 31 -50 62 -53 67 -4 7 25 11 85 11 132 0 183 13 272 71
52 33 204 173 189 173 -5 0 -2 6 7 13 9 7 18 18 20 26 3 8 43 26 89 42 141 46
160 55 195 88 42 39 65 84 65 127 0 43 -9 64 -27 64 -12 0 -14 11 -9 58 15
139 11 187 -19 246 -16 31 -31 56 -35 56 -4 0 -13 13 -19 29 -7 15 -35 53 -62
82 -28 30 -61 68 -73 84 -13 17 -36 44 -50 60 -23 26 -68 106 -72 128 -1 4 -2
8 -4 10 -3 4 -11 42 -13 62 -1 11 -5 22 -9 25 -4 3 -9 17 -11 30 -2 14 -6 32
-9 40 -3 8 -14 44 -24 80 -9 36 -22 71 -27 78 -5 6 -7 12 -4 12 4 0 -9 30 -28
68 -19 37 -35 71 -35 75 0 24 -63 58 -152 82 -40 11 -152 12 -213 2 -88 -14
-203 -67 -257 -118 -39 -36 -43 -44 -42 -87 1 -61 50 -173 98 -222 28 -29 57
-45 131 -69 52 -17 98 -31 102 -30 4 1 26 1 49 0 40 -1 41 -2 77 -73 21 -40
37 -79 37 -85 0 -7 4 -13 9 -13 16 0 19 -38 5 -58 -7 -11 -10 -22 -7 -26 3 -3
1 -6 -6 -6 -7 0 -11 -6 -8 -12 2 -7 0 -21 -5 -31 -20 -39 -29 -183 -15 -232 4
-16 9 -35 11 -42 1 -7 5 -16 9 -19 20 -20 -14 -40 -41 -24 -71 41 -219 48
-302 15 -59 -24 -104 -75 -125 -141 l-17 -53 -81 1 c-116 1 -173 -9 -243 -42
-61 -30 -124 -93 -124 -125 0 -10 -6 -15 -12 -13 -7 3 -43 13 -79 23 l-67 17
62 32 c79 40 166 97 166 108 0 4 6 8 13 8 14 0 150 137 188 190 52 70 111 193
123 252 3 13 9 47 15 77 35 175 -16 400 -126 552 -163 225 -403 375 -704 439
-76 16 -148 23 -270 26 -91 2 -168 2 -170 0z"/>
</g>
</svg>
