<svg version="1.1" xmlns="http://www.w3.org/2000/svg" xmlns:xlink="http://www.w3.org/1999/xlink" width="630.03662109375" height="427"><defs/><g><text fill="#eeeeee" stroke="none" font-family="Arial" font-size="24px" font-style="normal" font-weight="normal" text-decoration="none" x="0" y="0">UNREGISTERED</text><text fill="#eeeeee" stroke="none" font-family="Arial" font-size="24px" font-style="normal" font-weight="normal" text-decoration="none" x="0" y="30">UNREGISTERED</text><text fill="#eeeeee" stroke="none" font-family="Arial" font-size="24px" font-style="normal" font-weight="normal" text-decoration="none" x="0" y="60">UNREGISTERED</text><text fill="#eeeeee" stroke="none" font-family="Arial" font-size="24px" font-style="normal" font-weight="normal" text-decoration="none" x="0" y="90">UNREGISTERED</text><text fill="#eeeeee" stroke="none" font-family="Arial" font-size="24px" font-style="normal" font-weight="normal" text-decoration="none" x="0" y="120">UNREGISTERED</text><text fill="#eeeeee" stroke="none" font-family="Arial" font-size="24px" font-style="normal" font-weight="normal" text-decoration="none" x="0" y="150">UNREGISTERED</text><text fill="#eeeeee" stroke="none" font-family="Arial" font-size="24px" font-style="normal" font-weight="normal" text-decoration="none" x="0" y="180">UNREGISTERED</text><text fill="#eeeeee" stroke="none" font-family="Arial" font-size="24px" font-style="normal" font-weight="normal" text-decoration="none" x="0" y="210">UNREGISTERED</text><text fill="#eeeeee" stroke="none" font-family="Arial" font-size="24px" font-style="normal" font-weight="normal" text-decoration="none" x="0" y="240">UNREGISTERED</text><text fill="#eeeeee" stroke="none" font-family="Arial" font-size="24px" font-style="normal" font-weight="normal" text-decoration="none" x="0" y="270">UNREGISTERED</text><text fill="#eeeeee" stroke="none" font-family="Arial" font-size="24px" font-style="normal" font-weight="normal" text-decoration="none" x="0" y="300">UNREGISTERED</text><text fill="#eeeeee" stroke="none" font-family="Arial" font-size="24px" font-style="normal" font-weight="normal" text-decoration="none" x="0" y="330">UNREGISTERED</text><text fill="#eeeeee" stroke="none" font-family="Arial" font-size="24px" font-style="normal" font-weight="normal" text-decoration="none" x="0" y="360">UNREGISTERED</text><text fill="#eeeeee" stroke="none" font-family="Arial" font-size="24px" font-style="normal" font-weight="normal" text-decoration="none" x="0" y="390">UNREGISTERED</text><text fill="#eeeeee" stroke="none" font-family="Arial" font-size="24px" font-style="normal" font-weight="normal" text-decoration="none" x="0" y="420">UNREGISTERED</text><text fill="#eeeeee" stroke="none" font-family="Arial" font-size="24px" font-style="normal" font-weight="normal" text-decoration="none" x="200" y="0">UNREGISTERED</text><text fill="#eeeeee" stroke="none" font-family="Arial" font-size="24px" font-style="normal" font-weight="normal" text-decoration="none" x="200" y="30">UNREGISTERED</text><text fill="#eeeeee" stroke="none" font-family="Arial" font-size="24px" font-style="normal" font-weight="normal" text-decoration="none" x="200" y="60">UNREGISTERED</text><text fill="#eeeeee" stroke="none" font-family="Arial" font-size="24px" font-style="normal" font-weight="normal" text-decoration="none" x="200" y="90">UNREGISTERED</text><text fill="#eeeeee" stroke="none" font-family="Arial" font-size="24px" font-style="normal" font-weight="normal" text-decoration="none" x="200" y="120">UNREGISTERED</text><text fill="#eeeeee" stroke="none" font-family="Arial" font-size="24px" font-style="normal" font-weight="normal" text-decoration="none" x="200" y="150">UNREGISTERED</text><text fill="#eeeeee" stroke="none" font-family="Arial" font-size="24px" font-style="normal" font-weight="normal" text-decoration="none" x="200" y="180">UNREGISTERED</text><text fill="#eeeeee" stroke="none" font-family="Arial" font-size="24px" font-style="normal" font-weight="normal" text-decoration="none" x="200" y="210">UNREGISTERED</text><text fill="#eeeeee" stroke="none" font-family="Arial" font-size="24px" font-style="normal" font-weight="normal" text-decoration="none" x="200" y="240">UNREGISTERED</text><text fill="#eeeeee" stroke="none" font-family="Arial" font-size="24px" font-style="normal" font-weight="normal" text-decoration="none" x="200" y="270">UNREGISTERED</text><text fill="#eeeeee" stroke="none" font-family="Arial" font-size="24px" font-style="normal" font-weight="normal" text-decoration="none" x="200" y="300">UNREGISTERED</text><text fill="#eeeeee" stroke="none" font-family="Arial" font-size="24px" font-style="normal" font-weight="normal" text-decoration="none" x="200" y="330">UNREGISTERED</text><text fill="#eeeeee" stroke="none" font-family="Arial" font-size="24px" font-style="normal" font-weight="normal" text-decoration="none" x="200" y="360">UNREGISTERED</text><text fill="#eeeeee" stroke="none" font-family="Arial" font-size="24px" font-style="normal" font-weight="normal" text-decoration="none" x="200" y="390">UNREGISTERED</text><text fill="#eeeeee" stroke="none" font-family="Arial" font-size="24px" font-style="normal" font-weight="normal" text-decoration="none" x="200" y="420">UNREGISTERED</text><text fill="#eeeeee" stroke="none" font-family="Arial" font-size="24px" font-style="normal" font-weight="normal" text-decoration="none" x="400" y="0">UNREGISTERED</text><text fill="#eeeeee" stroke="none" font-family="Arial" font-size="24px" font-style="normal" font-weight="normal" text-decoration="none" x="400" y="30">UNREGISTERED</text><text fill="#eeeeee" stroke="none" font-family="Arial" font-size="24px" font-style="normal" font-weight="normal" text-decoration="none" x="400" y="60">UNREGISTERED</text><text fill="#eeeeee" stroke="none" font-family="Arial" font-size="24px" font-style="normal" font-weight="normal" text-decoration="none" x="400" y="90">UNREGISTERED</text><text fill="#eeeeee" stroke="none" font-family="Arial" font-size="24px" font-style="normal" font-weight="normal" text-decoration="none" x="400" y="120">UNREGISTERED</text><text fill="#eeeeee" stroke="none" font-family="Arial" font-size="24px" font-style="normal" font-weight="normal" text-decoration="none" x="400" y="150">UNREGISTERED</text><text fill="#eeeeee" stroke="none" font-family="Arial" font-size="24px" font-style="normal" font-weight="normal" text-decoration="none" x="400" y="180">UNREGISTERED</text><text fill="#eeeeee" stroke="none" font-family="Arial" font-size="24px" font-style="normal" font-weight="normal" text-decoration="none" x="400" y="210">UNREGISTERED</text><text fill="#eeeeee" stroke="none" font-family="Arial" font-size="24px" font-style="normal" font-weight="normal" text-decoration="none" x="400" y="240">UNREGISTERED</text><text fill="#eeeeee" stroke="none" font-family="Arial" font-size="24px" font-style="normal" font-weight="normal" text-decoration="none" x="400" y="270">UNREGISTERED</text><text fill="#eeeeee" stroke="none" font-family="Arial" font-size="24px" font-style="normal" font-weight="normal" text-decoration="none" x="400" y="300">UNREGISTERED</text><text fill="#eeeeee" stroke="none" font-family="Arial" font-size="24px" font-style="normal" font-weight="normal" text-decoration="none" x="400" y="330">UNREGISTERED</text><text fill="#eeeeee" stroke="none" font-family="Arial" font-size="24px" font-style="normal" font-weight="normal" text-decoration="none" x="400" y="360">UNREGISTERED</text><text fill="#eeeeee" stroke="none" font-family="Arial" font-size="24px" font-style="normal" font-weight="normal" text-decoration="none" x="400" y="390">UNREGISTERED</text><text fill="#eeeeee" stroke="none" font-family="Arial" font-size="24px" font-style="normal" font-weight="normal" text-decoration="none" x="400" y="420">UNREGISTERED</text><text fill="#eeeeee" stroke="none" font-family="Arial" font-size="24px" font-style="normal" font-weight="normal" text-decoration="none" x="600" y="0">UNREGISTERED</text><text fill="#eeeeee" stroke="none" font-family="Arial" font-size="24px" font-style="normal" font-weight="normal" text-decoration="none" x="600" y="30">UNREGISTERED</text><text fill="#eeeeee" stroke="none" font-family="Arial" font-size="24px" font-style="normal" font-weight="normal" text-decoration="none" x="600" y="60">UNREGISTERED</text><text fill="#eeeeee" stroke="none" font-family="Arial" font-size="24px" font-style="normal" font-weight="normal" text-decoration="none" x="600" y="90">UNREGISTERED</text><text fill="#eeeeee" stroke="none" font-family="Arial" font-size="24px" font-style="normal" font-weight="normal" text-decoration="none" x="600" y="120">UNREGISTERED</text><text fill="#eeeeee" stroke="none" font-family="Arial" font-size="24px" font-style="normal" font-weight="normal" text-decoration="none" x="600" y="150">UNREGISTERED</text><text fill="#eeeeee" stroke="none" font-family="Arial" font-size="24px" font-style="normal" font-weight="normal" text-decoration="none" x="600" y="180">UNREGISTERED</text><text fill="#eeeeee" stroke="none" font-family="Arial" font-size="24px" font-style="normal" font-weight="normal" text-decoration="none" x="600" y="210">UNREGISTERED</text><text fill="#eeeeee" stroke="none" font-family="Arial" font-size="24px" font-style="normal" font-weight="normal" text-decoration="none" x="600" y="240">UNREGISTERED</text><text fill="#eeeeee" stroke="none" font-family="Arial" font-size="24px" font-style="normal" font-weight="normal" text-decoration="none" x="600" y="270">UNREGISTERED</text><text fill="#eeeeee" stroke="none" font-family="Arial" font-size="24px" font-style="normal" font-weight="normal" text-decoration="none" x="600" y="300">UNREGISTERED</text><text fill="#eeeeee" stroke="none" font-family="Arial" font-size="24px" font-style="normal" font-weight="normal" text-decoration="none" x="600" y="330">UNREGISTERED</text><text fill="#eeeeee" stroke="none" font-family="Arial" font-size="24px" font-style="normal" font-weight="normal" text-decoration="none" x="600" y="360">UNREGISTERED</text><text fill="#eeeeee" stroke="none" font-family="Arial" font-size="24px" font-style="normal" font-weight="normal" text-decoration="none" x="600" y="390">UNREGISTERED</text><text fill="#eeeeee" stroke="none" font-family="Arial" font-size="24px" font-style="normal" font-weight="normal" text-decoration="none" x="600" y="420">UNREGISTERED</text><g transform="translate(-78,-22) scale(1,1)"><rect fill="#C0C0C0" stroke="none" x="343" y="39" width="49.27011718749998" height="15" opacity="0.2"/></g><g transform="translate(-78,-22) scale(1,1)"><rect fill="#C0C0C0" stroke="none" x="343" y="53" width="123.17529296875" height="38" opacity="0.2"/></g><g transform="translate(-78,-22) scale(1,1)"><rect fill="#ffffff" stroke="none" x="336" y="47" width="123.17529296875" height="37"/></g><g transform="translate(-78,-22) scale(1,1)"><path fill="none" stroke="#000000" d="M 336 47 L 459.17529296875 47 L 459.17529296875 84 L 336 84 L 336 47 Z Z" stroke-miterlimit="10"/></g><g transform="translate(-78,-22) scale(1,1)"><rect fill="#ffffff" stroke="none" x="336" y="32" width="49.27011718749998" height="15"/></g><g transform="translate(-78,-22) scale(1,1)"><path fill="none" stroke="#000000" d="M 336 32 L 385.2701171875 32 L 385.2701171875 47 L 336 47 L 336 32 Z Z" stroke-miterlimit="10"/></g><g transform="translate(-78,-22) scale(1,1)"><rect fill="#ffffff" stroke="none" x="336" y="46" width="123.17529296875" height="38"/></g><g transform="translate(-78,-22) scale(1,1)"><path fill="none" stroke="#000000" d="M 336 46 L 459.17529296875 46 L 459.17529296875 84 L 336 84 L 336 46 Z Z" stroke-miterlimit="10"/></g><g transform="translate(-78,-22) scale(1,1)"><g><path fill="none" stroke="none"/><text fill="#000000" stroke="none" font-family="Arial" font-size="13px" font-style="normal" font-weight="normal" text-decoration="none" x="340.5" y="63">«CompositionRoot»</text></g></g><g transform="translate(-78,-22) scale(1,1)"><g><path fill="none" stroke="none"/><text fill="#000000" stroke="none" font-family="Arial" font-size="13px" font-style="normal" font-weight="bold" text-decoration="none" x="361.939208984375" y="78">Web.Server</text></g></g><g transform="translate(-78,-22) scale(1,1)"><rect fill="#C0C0C0" stroke="none" x="557" y="143" width="27.5966796875" height="15" opacity="0.2"/></g><g transform="translate(-78,-22) scale(1,1)"><rect fill="#C0C0C0" stroke="none" x="557" y="157" width="68.99169921875" height="25" opacity="0.2"/></g><g transform="translate(-78,-22) scale(1,1)"><rect fill="#ffffff" stroke="none" x="550" y="151" width="68.99169921875" height="24"/></g><g transform="translate(-78,-22) scale(1,1)"><path fill="none" stroke="#000000" d="M 550 151 L 618.99169921875 151 L 618.99169921875 175 L 550 175 L 550 151 Z Z" stroke-miterlimit="10"/></g><g transform="translate(-78,-22) scale(1,1)"><rect fill="#ffffff" stroke="none" x="550" y="136" width="27.5966796875" height="15"/></g><g transform="translate(-78,-22) scale(1,1)"><path fill="none" stroke="#000000" d="M 550 136 L 577.5966796875 136 L 577.5966796875 151 L 550 151 L 550 136 Z Z" stroke-miterlimit="10"/></g><g transform="translate(-78,-22) scale(1,1)"><rect fill="#ffffff" stroke="none" x="550" y="150" width="68.99169921875" height="25"/></g><g transform="translate(-78,-22) scale(1,1)"><path fill="none" stroke="#000000" d="M 550 150 L 618.99169921875 150 L 618.99169921875 175 L 550 175 L 550 150 Z Z" stroke-miterlimit="10"/></g><g transform="translate(-78,-22) scale(1,1)"><g><path fill="none" stroke="none"/><text fill="#000000" stroke="none" font-family="Arial" font-size="13px" font-style="normal" font-weight="bold" text-decoration="none" x="557.166015625" y="169">Web.Spa</text></g></g><g transform="translate(-78,-22) scale(1,1)"><rect fill="#C0C0C0" stroke="none" x="599" y="239" width="42.41464843749998" height="15" opacity="0.2"/></g><g transform="translate(-78,-22) scale(1,1)"><rect fill="#C0C0C0" stroke="none" x="599" y="253" width="106.03662109375" height="25" opacity="0.2"/></g><g transform="translate(-78,-22) scale(1,1)"><rect fill="#ffffff" stroke="none" x="592" y="247" width="106.03662109375" height="24"/></g><g transform="translate(-78,-22) scale(1,1)"><path fill="none" stroke="#000000" d="M 592 247 L 698.03662109375 247 L 698.03662109375 271 L 592 271 L 592 247 Z Z" stroke-miterlimit="10"/></g><g transform="translate(-78,-22) scale(1,1)"><rect fill="#ffffff" stroke="none" x="592" y="232" width="42.41464843749998" height="15"/></g><g transform="translate(-78,-22) scale(1,1)"><path fill="none" stroke="#000000" d="M 592 232 L 634.4146484375 232 L 634.4146484375 247 L 592 247 L 592 232 Z Z" stroke-miterlimit="10"/></g><g transform="translate(-78,-22) scale(1,1)"><rect fill="#ffffff" stroke="none" x="592" y="246" width="106.03662109375" height="25"/></g><g transform="translate(-78,-22) scale(1,1)"><path fill="none" stroke="#000000" d="M 592 246 L 698.03662109375 246 L 698.03662109375 271 L 592 271 L 592 246 Z Z" stroke-miterlimit="10"/></g><g transform="translate(-78,-22) scale(1,1)"><g><path fill="none" stroke="none"/><text fill="#000000" stroke="none" font-family="Arial" font-size="13px" font-style="normal" font-weight="bold" text-decoration="none" x="596.5" y="265">Web.TypeScript</text></g></g><g transform="translate(-78,-22) scale(1,1)"><rect fill="#C0C0C0" stroke="none" x="342" y="143" width="49.73476562500002" height="15" opacity="0.2"/></g><g transform="translate(-78,-22) scale(1,1)"><rect fill="#C0C0C0" stroke="none" x="342" y="157" width="124.3369140625" height="25" opacity="0.2"/></g><g transform="translate(-78,-22) scale(1,1)"><rect fill="#ffffff" stroke="none" x="335" y="151" width="124.3369140625" height="24"/></g><g transform="translate(-78,-22) scale(1,1)"><path fill="none" stroke="#000000" d="M 335 151 L 459.3369140625 151 L 459.3369140625 175 L 335 175 L 335 151 Z Z" stroke-miterlimit="10"/></g><g transform="translate(-78,-22) scale(1,1)"><rect fill="#ffffff" stroke="none" x="335" y="136" width="49.73476562500002" height="15"/></g><g transform="translate(-78,-22) scale(1,1)"><path fill="none" stroke="#000000" d="M 335 136 L 384.734765625 136 L 384.734765625 151 L 335 151 L 335 136 Z Z" stroke-miterlimit="10"/></g><g transform="translate(-78,-22) scale(1,1)"><rect fill="#ffffff" stroke="none" x="335" y="150" width="124.3369140625" height="25"/></g><g transform="translate(-78,-22) scale(1,1)"><path fill="none" stroke="#000000" d="M 335 150 L 459.3369140625 150 L 459.3369140625 175 L 335 175 L 335 150 Z Z" stroke-miterlimit="10"/></g><g transform="translate(-78,-22) scale(1,1)"><g><path fill="none" stroke="none"/><text fill="#000000" stroke="none" font-family="Arial" font-size="13px" font-style="normal" font-weight="bold" text-decoration="none" x="339.5" y="169">Web.Infrastructure</text></g></g><g transform="translate(-78,-22) scale(1,1)"><rect fill="#C0C0C0" stroke="none" x="361" y="325" width="34.99550781250002" height="15" opacity="0.2"/></g><g transform="translate(-78,-22) scale(1,1)"><rect fill="#C0C0C0" stroke="none" x="361" y="339" width="87.48876953125" height="25" opacity="0.2"/></g><g transform="translate(-78,-22) scale(1,1)"><rect fill="#ffffff" stroke="none" x="354" y="333" width="87.48876953125" height="24"/></g><g transform="translate(-78,-22) scale(1,1)"><path fill="none" stroke="#000000" d="M 354 333 L 441.48876953125 333 L 441.48876953125 357 L 354 357 L 354 333 Z Z" stroke-miterlimit="10"/></g><g transform="translate(-78,-22) scale(1,1)"><rect fill="#ffffff" stroke="none" x="354" y="318" width="34.99550781250002" height="15"/></g><g transform="translate(-78,-22) scale(1,1)"><path fill="none" stroke="#000000" d="M 354 318 L 388.9955078125 318 L 388.9955078125 333 L 354 333 L 354 318 Z Z" stroke-miterlimit="10"/></g><g transform="translate(-78,-22) scale(1,1)"><rect fill="#ffffff" stroke="none" x="354" y="332" width="87.48876953125" height="25"/></g><g transform="translate(-78,-22) scale(1,1)"><path fill="none" stroke="#000000" d="M 354 332 L 441.48876953125 332 L 441.48876953125 357 L 354 357 L 354 332 Z Z" stroke-miterlimit="10"/></g><g transform="translate(-78,-22) scale(1,1)"><g><path fill="none" stroke="none"/><text fill="#000000" stroke="none" font-family="Arial" font-size="13px" font-style="normal" font-weight="bold" text-decoration="none" x="358.5" y="351">Web.Domain</text></g></g><g transform="translate(-78,-22) scale(1,1)"><rect fill="#C0C0C0" stroke="none" x="541" y="327" width="40.198046875000045" height="15" opacity="0.2"/></g><g transform="translate(-78,-22) scale(1,1)"><rect fill="#C0C0C0" stroke="none" x="541" y="341" width="100.4951171875" height="25" opacity="0.2"/></g><g transform="translate(-78,-22) scale(1,1)"><rect fill="#ffffff" stroke="none" x="534" y="335" width="100.4951171875" height="24"/></g><g transform="translate(-78,-22) scale(1,1)"><path fill="none" stroke="#000000" d="M 534 335 L 634.4951171875 335 L 634.4951171875 359 L 534 359 L 534 335 Z Z" stroke-miterlimit="10"/></g><g transform="translate(-78,-22) scale(1,1)"><rect fill="#ffffff" stroke="none" x="534" y="320" width="40.198046875000045" height="15"/></g><g transform="translate(-78,-22) scale(1,1)"><path fill="none" stroke="#000000" d="M 534 320 L 574.198046875 320 L 574.198046875 335 L 534 335 L 534 320 Z Z" stroke-miterlimit="10"/></g><g transform="translate(-78,-22) scale(1,1)"><rect fill="#ffffff" stroke="none" x="534" y="334" width="100.4951171875" height="25"/></g><g transform="translate(-78,-22) scale(1,1)"><path fill="none" stroke="#000000" d="M 534 334 L 634.4951171875 334 L 634.4951171875 359 L 534 359 L 534 334 Z Z" stroke-miterlimit="10"/></g><g transform="translate(-78,-22) scale(1,1)"><g><path fill="none" stroke="none"/><text fill="#000000" stroke="none" font-family="Arial" font-size="13px" font-style="normal" font-weight="bold" text-decoration="none" x="538.5" y="353">Web.Contracts</text></g></g><g transform="translate(-78,-22) scale(1,1)"><rect fill="#C0C0C0" stroke="none" x="349" y="234" width="44.23769531250002" height="15" opacity="0.2"/></g><g transform="translate(-78,-22) scale(1,1)"><rect fill="#C0C0C0" stroke="none" x="349" y="248" width="110.59423828125" height="25" opacity="0.2"/></g><g transform="translate(-78,-22) scale(1,1)"><rect fill="#ffffff" stroke="none" x="342" y="242" width="110.59423828125" height="24"/></g><g transform="translate(-78,-22) scale(1,1)"><path fill="none" stroke="#000000" d="M 342 242 L 452.59423828125 242 L 452.59423828125 266 L 342 266 L 342 242 Z Z" stroke-miterlimit="10"/></g><g transform="translate(-78,-22) scale(1,1)"><rect fill="#ffffff" stroke="none" x="342" y="227" width="44.23769531250002" height="15"/></g><g transform="translate(-78,-22) scale(1,1)"><path fill="none" stroke="#000000" d="M 342 227 L 386.2376953125 227 L 386.2376953125 242 L 342 242 L 342 227 Z Z" stroke-miterlimit="10"/></g><g transform="translate(-78,-22) scale(1,1)"><rect fill="#ffffff" stroke="none" x="342" y="241" width="110.59423828125" height="25"/></g><g transform="translate(-78,-22) scale(1,1)"><path fill="none" stroke="#000000" d="M 342 241 L 452.59423828125 241 L 452.59423828125 266 L 342 266 L 342 241 Z Z" stroke-miterlimit="10"/></g><g transform="translate(-78,-22) scale(1,1)"><g><path fill="none" stroke="none"/><text fill="#000000" stroke="none" font-family="Arial" font-size="13px" font-style="normal" font-weight="bold" text-decoration="none" x="346.5" y="260">Web.Application</text></g></g><g transform="translate(-78,-22) scale(1,1)"><path fill="none" stroke="#000000" d="M 397 85 L 397 135" stroke-miterlimit="10" stroke-dasharray="3"/></g><g transform="translate(-78,-22) scale(1,1)"><path fill="none" stroke="#000000" d="M 392.790482243984 124.83732514237585 L 397 135 L 401.209517756016 124.83732514237585" stroke-miterlimit="10"/></g><g transform="translate(-78,-22) scale(1,1)"><path fill="none" stroke="#000000" d="M 459 64 L 568 64 L 568 136" stroke-miterlimit="10" stroke-dasharray="3"/></g><g transform="translate(-78,-22) scale(1,1)"><path fill="none" stroke="#000000" d="M 563.790482243984 125.83732514237585 L 568 136 L 572.209517756016 125.83732514237585" stroke-miterlimit="10"/></g><g transform="translate(-78,-22) scale(1,1)"><path fill="none" stroke="#000000" d="M 568 175 L 568 320" stroke-miterlimit="10" stroke-dasharray="3"/></g><g transform="translate(-78,-22) scale(1,1)"><path fill="none" stroke="#000000" d="M 563.790482243984 309.83732514237585 L 568 320 L 572.209517756016 309.83732514237585" stroke-miterlimit="10"/></g><g transform="translate(-78,-22) scale(1,1)"><path fill="none" stroke="#000000" d="M 608 175 L 608 232" stroke-miterlimit="10" stroke-dasharray="3"/></g><g transform="translate(-78,-22) scale(1,1)"><path fill="none" stroke="#000000" d="M 603.790482243984 221.83732514237585 L 608 232 L 612.209517756016 221.83732514237585" stroke-miterlimit="10"/></g><g transform="translate(-78,-22) scale(1,1)"><path fill="none" stroke="#000000" d="M 397 176 L 397 226" stroke-miterlimit="10" stroke-dasharray="3"/></g><g transform="translate(-78,-22) scale(1,1)"><path fill="none" stroke="#000000" d="M 392.790482243984 215.83732514237585 L 397 226 L 401.209517756016 215.83732514237585" stroke-miterlimit="10"/></g><g transform="translate(-78,-22) scale(1,1)"><path fill="none" stroke="#000000" d="M 453 248 L 544 248 L 544 320" stroke-miterlimit="10" stroke-dasharray="3"/></g><g transform="translate(-78,-22) scale(1,1)"><path fill="none" stroke="#000000" d="M 539.790482243984 309.83732514237585 L 544 320 L 548.209517756016 309.83732514237585" stroke-miterlimit="10"/></g><g transform="translate(-78,-22) scale(1,1)"><path fill="none" stroke="#000000" d="M 397 267 L 397 317" stroke-miterlimit="10" stroke-dasharray="3"/></g><g transform="translate(-78,-22) scale(1,1)"><path fill="none" stroke="#000000" d="M 392.790482243984 306.83732514237585 L 397 317 L 401.209517756016 306.83732514237585" stroke-miterlimit="10"/></g><g transform="translate(-78,-22) scale(1,1)"><rect fill="#C0C0C0" stroke="none" x="117" y="47" width="43.767968749999994" height="15" opacity="0.2"/></g><g transform="translate(-78,-22) scale(1,1)"><rect fill="#C0C0C0" stroke="none" x="117" y="61" width="109.419921875" height="25" opacity="0.2"/></g><g transform="translate(-78,-22) scale(1,1)"><rect fill="#ffffff" stroke="none" x="110" y="55" width="109.419921875" height="24"/></g><g transform="translate(-78,-22) scale(1,1)"><path fill="none" stroke="#000000" d="M 110 55 L 219.419921875 55 L 219.419921875 79 L 110 79 L 110 55 Z Z" stroke-miterlimit="10"/></g><g transform="translate(-78,-22) scale(1,1)"><rect fill="#ffffff" stroke="none" x="110" y="40" width="43.767968749999994" height="15"/></g><g transform="translate(-78,-22) scale(1,1)"><path fill="none" stroke="#000000" d="M 110 40 L 153.76796875 40 L 153.76796875 55 L 110 55 L 110 40 Z Z" stroke-miterlimit="10"/></g><g transform="translate(-78,-22) scale(1,1)"><rect fill="#ffffff" stroke="none" x="110" y="54" width="109.419921875" height="25"/></g><g transform="translate(-78,-22) scale(1,1)"><path fill="none" stroke="#000000" d="M 110 54 L 219.419921875 54 L 219.419921875 79 L 110 79 L 110 54 Z Z" stroke-miterlimit="10"/></g><g transform="translate(-78,-22) scale(1,1)"><g><path fill="none" stroke="none"/><text fill="#000000" stroke="none" font-family="Arial" font-size="13px" font-style="normal" font-weight="bold" text-decoration="none" x="114.5" y="73">Common.Server</text></g></g><g transform="translate(-78,-22) scale(1,1)"><rect fill="#C0C0C0" stroke="none" x="95" y="143" width="61.38398437500001" height="15" opacity="0.2"/></g><g transform="translate(-78,-22) scale(1,1)"><rect fill="#C0C0C0" stroke="none" x="95" y="157" width="153.4599609375" height="25" opacity="0.2"/></g><g transform="translate(-78,-22) scale(1,1)"><rect fill="#ffffff" stroke="none" x="88" y="151" width="153.4599609375" height="24"/></g><g transform="translate(-78,-22) scale(1,1)"><path fill="none" stroke="#000000" d="M 88 151 L 241.4599609375 151 L 241.4599609375 175 L 88 175 L 88 151 Z Z" stroke-miterlimit="10"/></g><g transform="translate(-78,-22) scale(1,1)"><rect fill="#ffffff" stroke="none" x="88" y="136" width="61.38398437500001" height="15"/></g><g transform="translate(-78,-22) scale(1,1)"><path fill="none" stroke="#000000" d="M 88 136 L 149.383984375 136 L 149.383984375 151 L 88 151 L 88 136 Z Z" stroke-miterlimit="10"/></g><g transform="translate(-78,-22) scale(1,1)"><rect fill="#ffffff" stroke="none" x="88" y="150" width="153.4599609375" height="25"/></g><g transform="translate(-78,-22) scale(1,1)"><path fill="none" stroke="#000000" d="M 88 150 L 241.4599609375 150 L 241.4599609375 175 L 88 175 L 88 150 Z Z" stroke-miterlimit="10"/></g><g transform="translate(-78,-22) scale(1,1)"><g><path fill="none" stroke="none"/><text fill="#000000" stroke="none" font-family="Arial" font-size="13px" font-style="normal" font-weight="bold" text-decoration="none" x="92.5" y="169">Common.Infrastructure</text></g></g><g transform="translate(-78,-22) scale(1,1)"><rect fill="#C0C0C0" stroke="none" x="102" y="231" width="55.88691406250001" height="15" opacity="0.2"/></g><g transform="translate(-78,-22) scale(1,1)"><rect fill="#C0C0C0" stroke="none" x="102" y="245" width="139.71728515625" height="25" opacity="0.2"/></g><g transform="translate(-78,-22) scale(1,1)"><rect fill="#ffffff" stroke="none" x="95" y="239" width="139.71728515625" height="24"/></g><g transform="translate(-78,-22) scale(1,1)"><path fill="none" stroke="#000000" d="M 95 239 L 234.71728515625 239 L 234.71728515625 263 L 95 263 L 95 239 Z Z" stroke-miterlimit="10"/></g><g transform="translate(-78,-22) scale(1,1)"><rect fill="#ffffff" stroke="none" x="95" y="224" width="55.88691406250001" height="15"/></g><g transform="translate(-78,-22) scale(1,1)"><path fill="none" stroke="#000000" d="M 95 224 L 150.8869140625 224 L 150.8869140625 239 L 95 239 L 95 224 Z Z" stroke-miterlimit="10"/></g><g transform="translate(-78,-22) scale(1,1)"><rect fill="#ffffff" stroke="none" x="95" y="238" width="139.71728515625" height="25"/></g><g transform="translate(-78,-22) scale(1,1)"><path fill="none" stroke="#000000" d="M 95 238 L 234.71728515625 238 L 234.71728515625 263 L 95 263 L 95 238 Z Z" stroke-miterlimit="10"/></g><g transform="translate(-78,-22) scale(1,1)"><g><path fill="none" stroke="none"/><text fill="#000000" stroke="none" font-family="Arial" font-size="13px" font-style="normal" font-weight="bold" text-decoration="none" x="99.5" y="257">Common.Application</text></g></g><g transform="translate(-78,-22) scale(1,1)"><path fill="none" stroke="#000000" d="M 164 80 L 164 135" stroke-miterlimit="10" stroke-dasharray="3"/></g><g transform="translate(-78,-22) scale(1,1)"><path fill="none" stroke="#000000" d="M 159.790482243984 124.83732514237585 L 164 135 L 168.209517756016 124.83732514237585" stroke-miterlimit="10"/></g><g transform="translate(-78,-22) scale(1,1)"><path fill="none" stroke="#000000" d="M 164 176 L 164 223" stroke-miterlimit="10" stroke-dasharray="3"/></g><g transform="translate(-78,-22) scale(1,1)"><path fill="none" stroke="#000000" d="M 159.790482243984 212.83732514237585 L 164 223 L 168.209517756016 212.83732514237585" stroke-miterlimit="10"/></g><g transform="translate(-78,-22) scale(1,1)"><rect fill="#C0C0C0" stroke="none" x="113" y="325" width="46.64472656250001" height="15" opacity="0.2"/></g><g transform="translate(-78,-22) scale(1,1)"><rect fill="#C0C0C0" stroke="none" x="113" y="339" width="116.61181640625" height="25" opacity="0.2"/></g><g transform="translate(-78,-22) scale(1,1)"><rect fill="#ffffff" stroke="none" x="106" y="333" width="116.61181640625" height="24"/></g><g transform="translate(-78,-22) scale(1,1)"><path fill="none" stroke="#000000" d="M 106 333 L 222.61181640625 333 L 222.61181640625 357 L 106 357 L 106 333 Z Z" stroke-miterlimit="10"/></g><g transform="translate(-78,-22) scale(1,1)"><rect fill="#ffffff" stroke="none" x="106" y="318" width="46.64472656250001" height="15"/></g><g transform="translate(-78,-22) scale(1,1)"><path fill="none" stroke="#000000" d="M 106 318 L 152.6447265625 318 L 152.6447265625 333 L 106 333 L 106 318 Z Z" stroke-miterlimit="10"/></g><g transform="translate(-78,-22) scale(1,1)"><rect fill="#ffffff" stroke="none" x="106" y="332" width="116.61181640625" height="25"/></g><g transform="translate(-78,-22) scale(1,1)"><path fill="none" stroke="#000000" d="M 106 332 L 222.61181640625 332 L 222.61181640625 357 L 106 357 L 106 332 Z Z" stroke-miterlimit="10"/></g><g transform="translate(-78,-22) scale(1,1)"><g><path fill="none" stroke="none"/><text fill="#000000" stroke="none" font-family="Arial" font-size="13px" font-style="normal" font-weight="bold" text-decoration="none" x="110.5" y="351">Common.Domain</text></g></g><g transform="translate(-78,-22) scale(1,1)"><path fill="none" stroke="#000000" d="M 164 264 L 164 317" stroke-miterlimit="10" stroke-dasharray="3"/></g><g transform="translate(-78,-22) scale(1,1)"><path fill="none" stroke="#000000" d="M 159.790482243984 306.83732514237585 L 164 317 L 168.209517756016 306.83732514237585" stroke-miterlimit="10"/></g><g transform="translate(-78,-22) scale(1,1)"><rect fill="#C0C0C0" stroke="none" x="107" y="407" width="51.847265625000006" height="15" opacity="0.2"/></g><g transform="translate(-78,-22) scale(1,1)"><rect fill="#C0C0C0" stroke="none" x="107" y="421" width="129.6181640625" height="25" opacity="0.2"/></g><g transform="translate(-78,-22) scale(1,1)"><rect fill="#ffffff" stroke="none" x="100" y="415" width="129.6181640625" height="24"/></g><g transform="translate(-78,-22) scale(1,1)"><path fill="none" stroke="#000000" d="M 100 415 L 229.6181640625 415 L 229.6181640625 439 L 100 439 L 100 415 Z Z" stroke-miterlimit="10"/></g><g transform="translate(-78,-22) scale(1,1)"><rect fill="#ffffff" stroke="none" x="100" y="400" width="51.847265625000006" height="15"/></g><g transform="translate(-78,-22) scale(1,1)"><path fill="none" stroke="#000000" d="M 100 400 L 151.847265625 400 L 151.847265625 415 L 100 415 L 100 400 Z Z" stroke-miterlimit="10"/></g><g transform="translate(-78,-22) scale(1,1)"><rect fill="#ffffff" stroke="none" x="100" y="414" width="129.6181640625" height="25"/></g><g transform="translate(-78,-22) scale(1,1)"><path fill="none" stroke="#000000" d="M 100 414 L 229.6181640625 414 L 229.6181640625 439 L 100 439 L 100 414 Z Z" stroke-miterlimit="10"/></g><g transform="translate(-78,-22) scale(1,1)"><g><path fill="none" stroke="none"/><text fill="#000000" stroke="none" font-family="Arial" font-size="13px" font-style="normal" font-weight="bold" text-decoration="none" x="104.5" y="433">Common.Contracts</text></g></g><g transform="translate(-78,-22) scale(1,1)"><path fill="none" stroke="#000000" d="M 335 58 L 220 59" stroke-miterlimit="10" stroke-dasharray="3"/></g><g transform="translate(-78,-22) scale(1,1)"><path fill="none" stroke="#000000" d="M 230.12568753890892 54.70227364012265 L 220 59 L 230.19889377569208 63.12099087018517" stroke-miterlimit="10"/></g><g transform="translate(-78,-22) scale(1,1)"><path fill="none" stroke="#000000" d="M 334 155 L 242 155" stroke-miterlimit="10" stroke-dasharray="3"/></g><g transform="translate(-78,-22) scale(1,1)"><path fill="none" stroke="#000000" d="M 252.16267485762415 150.790482243984 L 242 155 L 252.16267485762415 159.209517756016" stroke-miterlimit="10"/></g><g transform="translate(-78,-22) scale(1,1)"><path fill="none" stroke="#000000" d="M 341 245 L 236 244" stroke-miterlimit="10" stroke-dasharray="3"/></g><g transform="translate(-78,-22) scale(1,1)"><path fill="none" stroke="#000000" d="M 246.2023028239404 239.8874561292775 L 236 244 L 246.122125169442 248.30610985161186" stroke-miterlimit="10"/></g><g transform="translate(-78,-22) scale(1,1)"><path fill="none" stroke="#000000" d="M 353 337 L 224 337" stroke-miterlimit="10" stroke-dasharray="3"/></g><g transform="translate(-78,-22) scale(1,1)"><path fill="none" stroke="#000000" d="M 234.16267485762415 332.790482243984 L 224 337 L 234.16267485762415 341.209517756016" stroke-miterlimit="10"/></g><g transform="translate(-78,-22) scale(1,1)"><path fill="none" stroke="#000000" d="M 584 359 L 584 424 L 230 424" stroke-miterlimit="10" stroke-dasharray="3"/></g><g transform="translate(-78,-22) scale(1,1)"><path fill="none" stroke="#000000" d="M 240.16267485762415 419.790482243984 L 230 424 L 240.16267485762415 428.209517756016" stroke-miterlimit="10"/></g></g></svg>